<svg xmlns="http://www.w3.org/2000/svg" xmlns:xlink="http://www.w3.org/1999/xlink" xmlns:lucid="lucid" width="1326.85" height="733"><g transform="translate(0 -47.00000000000006)" lucid:page-tab-id="eeCe8u-ZIJ.P"><path d="M360 300.5v4.92m0 4.92v9.84m0 4.92v9.85m0 4.92v9.84m0 4.93v9.84m0 4.92v9.83m0 4.92V394m0 4.92v9.84m0 4.92v9.84m0 4.92v9.84m0 4.92v9.84m0 4.92v9.85m0 4.93v9.84m0 4.92v9.83m0 4.92v9.84m0 4.9v9.85m0 4.93v9.84m0 4.92v9.84m0 4.92v9.84m0 4.92v9.84m0 4.92v9.85m0 4.92v9.83m0 4.92v9.84m0 4.9v9.85m0 4.92v9.84m0 4.94v9.84m0 4.92v9.84m0 4.92V704m0 4.92v4.92" stroke="#333" fill="none"/><path d="M360.5 300.5h-1v-.5h1" fill="#333"/><path d="M360 713.83v3.5" stroke="#333" fill="none"/><path d="M340 325c0-2.76 2.24-5 5-5h30c2.76 0 5 2.24 5 5v330c0 2.76-2.24 5-5 5h-30c-2.76 0-5-2.24-5-5z" stroke="#000" stroke-opacity="0" stroke-width="2" fill="#d2d3d5"/><path d="M320 685c0-2.76 2.24-5 5-5h70c2.76 0 5 2.24 5 5v70c0 2.76-2.24 5-5 5h-70c-2.76 0-5-2.24-5-5z" fill="none"/><path d="M328 688l64 64m0-64l-64 64" stroke="#666" stroke-width="8" fill="none"/><path d="M280 185c0-2.76 2.24-5 5-5h150c2.76 0 5 2.24 5 5v110c0 2.76-2.24 5-5 5H285c-2.76 0-5-2.24-5-5z" stroke="#000" stroke-opacity="0" stroke-width="2" fill="#ffbd50"/><use xlink:href="#a" transform="matrix(1,0,0,1,280,180) translate(11.680000000000016 63.15)"/><path d="M600 185c0-2.76 2.24-5 5-5h150c2.76 0 5 2.24 5 5v110c0 2.76-2.24 5-5 5H605c-2.76 0-5-2.24-5-5z" stroke="#000" stroke-opacity="0" stroke-width="2" fill="#ffcc78"/><use xlink:href="#b" transform="matrix(1,0,0,1,599.9999999999999,180) translate(63.005 63.15)"/><path d="M453.15 75c0-4.42 3.58-8 8-8h836.75c4.4 0 8 3.58 8 8v25.16c0 4.4-3.6 8-8 8H461.15c-4.42 0-8-3.6-8-8z" stroke="#000" stroke-opacity="0" stroke-width="2" fill="#fff" fill-opacity="0"/><use xlink:href="#c" transform="matrix(1,0,0,1,457.14655278534315,71.00000000000006) translate(284.3192592592593 25.782777777777778)"/><path d="M637.47 106.8h491.4M637.5 106.8h-1.03M1128.84 106.8h1.03" stroke="#b2b2b2" stroke-width="2" fill="none"/><path d="M453.15 116.16c0-4.42 3.58-8 8-8h837.7c4.42 0 8 3.58 8 8V119c0 4.42-3.58 8-8 8h-837.7c-4.42 0-8-3.58-8-8z" stroke="#000" stroke-opacity="0" stroke-width="2" fill="#fff" fill-opacity="0"/><use xlink:href="#d" transform="matrix(1,0,0,1,457.1465527853436,112.15522395678234) translate(308.8259465020576 14.917037037037037)"/><use xlink:href="#e" transform="matrix(1,0,0,1,457.1465527853436,112.15522395678234) translate(364.8698765432099 14.917037037037037)"/><use xlink:href="#f" transform="matrix(1,0,0,1,457.1465527853436,112.15522395678234) translate(413.265658436214 14.917037037037037)"/><use xlink:href="#g" transform="matrix(1,0,0,1,457.1465527853436,112.15522395678234) translate(425.7151440329218 14.917037037037037)"/><use xlink:href="#h" transform="matrix(1,0,0,1,457.1465527853436,112.15522395678234) translate(484.3084567901234 14.917037037037037)"/><use xlink:href="#i" transform="matrix(1,0,0,1,457.1465527853436,112.15522395678234) translate(509.80228395061727 14.917037037037037)"/><path d="M79.75 119.75c0 10.9-8.84 19.75-19.75 19.75-10.9 0-19.75-8.84-19.75-19.75C40.25 108.85 49.1 100 60 100c10.9 0 19.75 8.84 19.75 19.75z" stroke="#5e5e5e" stroke-width="3" fill="#c1e4f7"/><path d="M60 139.5v49.3c0 3.3 1.44 8.27 3.2 11.07L100 258m-40-63.2L20 258m0-98.75h80" stroke="#5e5e5e" stroke-width="3" fill="none"/><path d="M20 106c0-3.3 2.7-6 6-6h68c3.3 0 6 2.7 6 6v168c0 3.3-2.7 6-6 6H26c-3.3 0-6-2.7-6-6z" fill="none"/><use xlink:href="#j" transform="matrix(1,0,0,1,-60,258) translate(87.9320987654321 17.77777777777778)"/><path d="M40 326c0-3.3 2.7-6 6-6h28c3.3 0 6 2.7 6 6v328c0 3.3-2.7 6-6 6H46c-3.3 0-6-2.7-6-6z" stroke="#5e5e5e" stroke-width="3" fill="#c1e4f7"/><path d="M680 300.5v4.92m0 4.92v9.84m0 4.92v9.85m0 4.92v9.84m0 4.93v9.84m0 4.92v9.83m0 4.92V394m0 4.92v9.84m0 4.92v9.84m0 4.92v9.84m0 4.92v9.84m0 4.92v9.85m0 4.93v9.84m0 4.92v9.83m0 4.92v9.84m0 4.9v9.85m0 4.93v9.84m0 4.92v9.84m0 4.92v9.84m0 4.92v9.84m0 4.92v9.85m0 4.92v9.83m0 4.92v9.84m0 4.9v9.85m0 4.92v9.84m0 4.94v9.84m0 4.92v9.84m0 4.92V704m0 4.92v4.92" stroke="#333" fill="none"/><path d="M680.5 300.5h-1v-.5h1" fill="#333"/><path d="M680 713.83v3.5" stroke="#333" fill="none"/><path d="M660 325c0-2.76 2.24-5 5-5h30c2.76 0 5 2.24 5 5v330c0 2.76-2.24 5-5 5h-30c-2.76 0-5-2.24-5-5z" stroke="#000" stroke-opacity="0" stroke-width="2" fill="#d2d3d5"/><path d="M980 185c0-2.76 2.24-5 5-5h150c2.76 0 5 2.24 5 5v110c0 2.76-2.24 5-5 5H985c-2.76 0-5-2.24-5-5z" stroke="#000" stroke-opacity="0" stroke-width="2" fill="#ffcc78"/><use xlink:href="#k" transform="matrix(1,0,0,1,980,180) translate(20.221049382716046 62.77777777777778)"/><path d="M1060 300.5v4.92m0 4.92v9.84m0 4.92v9.85m0 4.92v9.84m0 4.93v9.84m0 4.92v9.83m0 4.92V394m0 4.92v9.84m0 4.92v9.84m0 4.92v9.84m0 4.92v9.84m0 4.92v9.85m0 4.93v9.84m0 4.92v9.83m0 4.92v9.84m0 4.9v9.85m0 4.93v9.84m0 4.92v9.84m0 4.92v9.84m0 4.92v9.84m0 4.92v9.85m0 4.92v9.83m0 4.92v9.84m0 4.9v9.85m0 4.92v9.84m0 4.94v9.84m0 4.92v9.84m0 4.92V704m0 4.92v4.92" stroke="#333" fill="none"/><path d="M1060.5 300.5h-1v-.5h1" fill="#333"/><path d="M1060 713.83v3.5" stroke="#333" fill="none"/><path d="M1040 325c0-2.76 2.24-5 5-5h30c2.76 0 5 2.24 5 5v330c0 2.76-2.24 5-5 5h-30c-2.76 0-5-2.24-5-5z" stroke="#000" stroke-opacity="0" stroke-width="2" fill="#d2d3d5"/><path d="M640 685c0-2.76 2.24-5 5-5h70c2.76 0 5 2.24 5 5v70c0 2.76-2.24 5-5 5h-70c-2.76 0-5-2.24-5-5z" fill="none"/><path d="M648 688l64 64m0-64l-64 64" stroke="#666" stroke-width="8" fill="none"/><path d="M1020 685c0-2.76 2.24-5 5-5h70c2.76 0 5 2.24 5 5v70c0 2.76-2.24 5-5 5h-70c-2.76 0-5-2.24-5-5z" fill="none"/><path d="M1028 688l64 64m0-64l-64 64" stroke="#666" stroke-width="8" fill="none"/><path d="M82 340h241.62" stroke="#333" fill="none"/><path d="M82 340.5h-.5v-1h.5" fill="#333"/><path d="M338.38 340l-14.26 4.64v-9.28z" stroke="#333" fill="#333"/><use xlink:href="#l" transform="matrix(1,0,0,1,122.72140175219022,314.4000000000002) translate(0.0049999999999954525 14.4)"/><use xlink:href="#m" transform="matrix(1,0,0,1,122.72140175219022,314.4000000000002) translate(59.855000000000004 14.4)"/><use xlink:href="#n" transform="matrix(1,0,0,1,122.72140175219022,314.4000000000002) translate(94.855 14.4)"/><path d="M380.5 360h263.12" stroke="#333" fill="none"/><path d="M380.5 360.5h-.5v-1h.5" fill="#333"/><path d="M658.38 360l-14.26 4.64v-9.28z" stroke="#333" fill="#333"/><use xlink:href="#o" transform="matrix(1,0,0,1,462.7,334.4000000000002) translate(0.005000000000002558 14.4)"/><path d="M700.5 380h323.12" stroke="#333" fill="none"/><path d="M700.5 380.5h-.5v-1h.5" fill="#333"/><path d="M1038.38 380l-14.26 4.64v-9.28z" stroke="#333" fill="#333"/><use xlink:href="#p" transform="matrix(1,0,0,1,792.275,354.40000000000003) translate(0.0049999999999954525 14.4)"/><path d="M700.9 420h4.92m4.9 0h9.82m4.9 0h9.82m4.9 0H750m4.9 0h9.82m4.9 0h9.82m4.9 0h9.82m4.9 0h9.83m4.9 0h9.82m4.9 0h9.8m4.92 0h9.8m4.92 0h9.8m4.92 0h9.8m4.92 0h9.8m4.92 0h9.82m4.9 0h9.82m4.9 0h9.82m4.9 0h9.82m4.9 0h9.82m4.9 0h9.82m4.9 0h9.82m4.9 0h9.82m4.9 0h9.83m4.9 0h4.9M718.2 409.82L700.98 420l17.22 10.18" stroke="#333" fill="none"/><path d="M1040 420.5h-.5v-1h.5" fill="#333"/><path d="M380.9 460h4.9m4.88 0h9.78m4.9 0h9.76m4.9 0h9.76m4.9 0h9.77m4.88 0h9.78m4.9 0h9.77m4.9 0h9.77m4.88 0h9.78m4.9 0h9.76m4.9 0h9.76m4.9 0h9.77m4.87 0h9.78m4.9 0h9.76m4.9 0h9.77m4.9 0h9.77m4.88 0h9.78m4.9 0h9.76m4.9 0h9.76m4.9 0h4.88M398.2 449.82L380.98 460l17.22 10.18" stroke="#333" fill="none"/><path d="M660 460.5h-.5v-1h.5" fill="#333"/><use xlink:href="#q" transform="matrix(1,0,0,1,486.6,434.4) translate(0.005000000000002558 14.4)"/><path d="M82 555.53h241.62" stroke="#333" fill="none"/><path d="M82 556.03h-.5v-1h.5" fill="#333"/><path d="M338.38 555.53l-14.26 4.64v-9.27z" stroke="#333" fill="#333"/><use xlink:href="#r" transform="matrix(1,0,0,1,110.65,529.9344180225282) translate(0.0049999999999954525 14.4)"/><use xlink:href="#s" transform="matrix(1,0,0,1,110.65,529.9344180225282) translate(67.955 14.4)"/><path d="M380.5 580h263.12" stroke="#333" fill="none"/><path d="M380.5 580.5h-.5v-1h.5" fill="#333"/><path d="M658.38 580l-14.26 4.64v-9.28z" stroke="#333" fill="#333"/><g><use xlink:href="#t" transform="matrix(1,0,0,1,444.1,554.4000000000001) translate(0.0049999999999954525 14.4)"/></g><path d="M380.9 620h4.9m4.88 0h9.78m4.9 0h9.76m4.9 0h9.76m4.9 0h9.77m4.88 0h9.78m4.9 0h9.77m4.9 0h9.77m4.88 0h9.78m4.9 0h9.76m4.9 0h9.76m4.9 0h9.77m4.87 0h9.78m4.9 0h9.76m4.9 0h9.77m4.9 0h9.77m4.88 0h9.78m4.9 0h9.76m4.9 0h9.76m4.9 0h4.88M398.2 609.82L380.98 620l17.22 10.18" stroke="#333" fill="none"/><path d="M660 620.5h-.5v-1h.5" fill="#333"/><defs><path fill="#333" d="M35-132v-50h50v50H35zM35 0v-49h50V0H35" id="u"/><path fill="#333" d="M24 0v-248h195v40H76v63h132v40H76v65h150V0H24" id="v"/><path fill="#333" d="M135-194c87-1 58 113 63 194h-50c-7-57 23-157-34-157-59 0-34 97-39 157H25l-1-190h47c2 12-1 28 3 38 12-26 28-41 61-42" id="w"/><path fill="#333" d="M128 0H69L1-190h53L99-40l48-150h52" id="x"/><path fill="#333" d="M25-224v-37h50v37H25zM25 0v-190h50V0H25" id="y"/><path fill="#333" d="M135-150c-39-12-60 13-60 57V0H25l-1-190h47c2 13-1 29 3 40 6-28 27-53 61-41v41" id="z"/><path fill="#333" d="M110-194c64 0 96 36 96 99 0 64-35 99-97 99-61 0-95-36-95-99 0-62 34-99 96-99zm-1 164c35 0 45-28 45-65 0-40-10-65-43-65-34 0-45 26-45 65 0 36 10 65 43 65" id="A"/><path fill="#333" d="M185-48c-13 30-37 53-82 52C43 2 14-33 14-96s30-98 90-98c62 0 83 45 84 108H66c0 31 8 55 39 56 18 0 30-7 34-22zm-45-69c5-46-57-63-70-21-2 6-4 13-4 21h74" id="B"/><path fill="#333" d="M220-157c-53 9-28 100-34 157h-49v-107c1-27-5-49-29-50C55-147 81-57 75 0H25l-1-190h47c2 12-1 28 3 38 10-53 101-56 108 0 13-22 24-43 59-42 82 1 51 116 57 194h-49v-107c-1-25-5-48-29-50" id="C"/><path fill="#333" d="M115-3C79 11 28 4 28-45v-112H4v-33h27l15-45h31v45h36v33H77v99c-1 23 16 31 38 25v30" id="D"/><g id="a"><use transform="matrix(0.05,0,0,0.05,0,0)" xlink:href="#u"/><use transform="matrix(0.05,0,0,0.05,5.95,0)" xlink:href="#v"/><use transform="matrix(0.05,0,0,0.05,17.95,0)" xlink:href="#w"/><use transform="matrix(0.05,0,0,0.05,28.899999999999995,0)" xlink:href="#x"/><use transform="matrix(0.05,0,0,0.05,38.9,0)" xlink:href="#y"/><use transform="matrix(0.05,0,0,0.05,43.9,0)" xlink:href="#z"/><use transform="matrix(0.05,0,0,0.05,50.9,0)" xlink:href="#A"/><use transform="matrix(0.05,0,0,0.05,61.85,0)" xlink:href="#w"/><use transform="matrix(0.05,0,0,0.05,72.8,0)" xlink:href="#w"/><use transform="matrix(0.05,0,0,0.05,83.75,0)" xlink:href="#B"/><use transform="matrix(0.05,0,0,0.05,93.75,0)" xlink:href="#C"/><use transform="matrix(0.05,0,0,0.05,109.75,0)" xlink:href="#B"/><use transform="matrix(0.05,0,0,0.05,119.75,0)" xlink:href="#w"/><use transform="matrix(0.05,0,0,0.05,130.7,0)" xlink:href="#D"/></g><path fill="#333" d="M33-154v-36h34v36H33zM33 0v-36h34V0H33" id="E"/><path fill="#333" d="M153-248C145-148 188 4 80 4 36 3 13-21 6-62l32-5c4 25 16 42 43 43 27 0 39-20 39-49v-147H72v-28h81" id="F"/><path fill="#333" d="M100-194c63 0 86 42 84 106H49c0 40 14 67 53 68 26 1 43-12 49-29l28 8c-11 28-37 45-77 45C44 4 14-33 15-96c1-61 26-98 85-98zm52 81c6-60-76-77-97-28-3 7-6 17-6 28h103" id="G"/><path fill="#333" d="M84 4C-5 8 30-112 23-190h32v120c0 31 7 50 39 49 72-2 45-101 50-169h31l1 190h-30c-1-10 1-25-2-33-11 22-28 36-60 37" id="H"/><g id="b"><use transform="matrix(0.05,0,0,0.05,0,0)" xlink:href="#E"/><use transform="matrix(0.05,0,0,0.05,5,0)" xlink:href="#F"/><use transform="matrix(0.05,0,0,0.05,14,0)" xlink:href="#G"/><use transform="matrix(0.05,0,0,0.05,24,0)" xlink:href="#H"/></g><path fill="#b2b2b2" d="M136-208V0H84v-208H4v-40h212v40h-80" id="I"/><path fill="#b2b2b2" d="M133-34C117-15 103 5 69 4 32 3 11-16 11-54c-1-60 55-63 116-61 1-26-3-47-28-47-18 1-26 9-28 27l-52-2c7-38 36-58 82-57s74 22 75 68l1 82c-1 14 12 18 25 15v27c-30 8-71 5-69-32zm-48 3c29 0 43-24 42-57-32 0-66-3-65 30 0 17 8 27 23 27" id="J"/><path fill="#b2b2b2" d="M220-157c-53 9-28 100-34 157h-49v-107c1-27-5-49-29-50C55-147 81-57 75 0H25l-1-190h47c2 12-1 28 3 38 10-53 101-56 108 0 13-22 24-43 59-42 82 1 51 116 57 194h-49v-107c-1-25-5-48-29-50" id="K"/><path fill="#b2b2b2" d="M195-6C206 82 75 100 31 46c-4-6-6-13-8-21l49-6c3 16 16 24 34 25 40 0 42-37 40-79-11 22-30 35-61 35-53 0-70-43-70-97 0-56 18-96 73-97 30 0 46 14 59 34l2-30h47zm-90-29c32 0 41-27 41-63 0-35-9-62-40-62-32 0-39 29-40 63 0 36 9 62 39 62" id="L"/><path fill="#b2b2b2" d="M110-194c64 0 96 36 96 99 0 64-35 99-97 99-61 0-95-36-95-99 0-62 34-99 96-99zm-1 164c35 0 45-28 45-65 0-40-10-65-43-65-34 0-45 26-45 65 0 36 10 65 43 65" id="M"/><path fill="#b2b2b2" d="M115-3C79 11 28 4 28-45v-112H4v-33h27l15-45h31v45h36v33H77v99c-1 23 16 31 38 25v30" id="N"/><path fill="#b2b2b2" d="M190-63c-7 42-38 67-86 67-59 0-84-38-90-98-12-110 154-137 174-36l-49 2c-2-19-15-32-35-32-30 0-35 28-38 64-6 74 65 87 74 30" id="O"/><path fill="#b2b2b2" d="M114-157C55-157 80-60 75 0H25v-261h50l-1 109c12-26 28-41 61-42 86-1 58 113 63 194h-50c-7-57 23-157-34-157" id="P"/><path fill="#b2b2b2" d="M25-224v-37h50v37H25zM25 0v-190h50V0H25" id="Q"/><path fill="#b2b2b2" d="M169-182c-1-43-94-46-97-3 18 66 151 10 154 114 3 95-165 93-204 36-6-8-10-19-12-30l50-8c3 46 112 56 116 5-17-69-150-10-154-114-4-87 153-88 188-35 5 8 8 18 10 28" id="R"/><path fill="#b2b2b2" d="M185-48c-13 30-37 53-82 52C43 2 14-33 14-96s30-98 90-98c62 0 83 45 84 108H66c0 31 8 55 39 56 18 0 30-7 34-22zm-45-69c5-46-57-63-70-21-2 6-4 13-4 21h74" id="S"/><path fill="#b2b2b2" d="M84 4C32 4 15-41 15-95c0-55 18-99 73-99 29 0 47 12 58 34l2-30h48l-1 265h-49V-32C136-9 114 4 84 4zm21-34c32 0 41-29 41-66 0-36-9-64-40-64-33 0-39 30-40 65 0 43 13 65 39 65" id="T"/><path fill="#b2b2b2" d="M85 4C-2 5 27-109 22-190h50c7 57-23 150 33 157 60-5 35-97 40-157h50l1 190h-47c-2-12 1-28-3-38-12 25-28 42-61 42" id="U"/><path fill="#b2b2b2" d="M135-194c87-1 58 113 63 194h-50c-7-57 23-157-34-157-59 0-34 97-39 157H25l-1-190h47c2 12-1 28 3 38 12-26 28-41 61-42" id="V"/><path fill="#b2b2b2" d="M182-182c0 78-84 86-111 141h115V0H12c-6-101 99-100 120-180 1-22-12-31-33-32-23 0-32 14-35 34l-49-3c5-45 32-70 84-70 51 0 83 22 83 69" id="W"/><g id="c"><use transform="matrix(0.0728395061728395,0,0,0.0728395061728395,0,0)" xlink:href="#I"/><use transform="matrix(0.0728395061728395,0,0,0.0728395061728395,13.985185185185184,0)" xlink:href="#J"/><use transform="matrix(0.0728395061728395,0,0,0.0728395061728395,28.553086419753086,0)" xlink:href="#K"/><use transform="matrix(0.0728395061728395,0,0,0.0728395061728395,51.86172839506174,0)" xlink:href="#J"/><use transform="matrix(0.0728395061728395,0,0,0.0728395061728395,66.42962962962963,0)" xlink:href="#L"/><use transform="matrix(0.0728395061728395,0,0,0.0728395061728395,82.38148148148149,0)" xlink:href="#M"/><use transform="matrix(0.0728395061728395,0,0,0.0728395061728395,98.33333333333334,0)" xlink:href="#N"/><use transform="matrix(0.0728395061728395,0,0,0.0728395061728395,107.00123456790125,0)" xlink:href="#O"/><use transform="matrix(0.0728395061728395,0,0,0.0728395061728395,121.56913580246915,0)" xlink:href="#P"/><use transform="matrix(0.0728395061728395,0,0,0.0728395061728395,137.520987654321,0)" xlink:href="#Q"/><use transform="matrix(0.0728395061728395,0,0,0.0728395061728395,144.80493827160495,0)" xlink:href="#R"/><use transform="matrix(0.0728395061728395,0,0,0.0728395061728395,162.28641975308642,0)" xlink:href="#S"/><use transform="matrix(0.0728395061728395,0,0,0.0728395061728395,176.85432098765432,0)" xlink:href="#T"/><use transform="matrix(0.0728395061728395,0,0,0.0728395061728395,192.80617283950616,0)" xlink:href="#U"/><use transform="matrix(0.0728395061728395,0,0,0.0728395061728395,208.75802469135797,0)" xlink:href="#S"/><use transform="matrix(0.0728395061728395,0,0,0.0728395061728395,223.3259259259259,0)" xlink:href="#V"/><use transform="matrix(0.0728395061728395,0,0,0.0728395061728395,239.27777777777774,0)" xlink:href="#O"/><use transform="matrix(0.0728395061728395,0,0,0.0728395061728395,253.84567901234564,0)" xlink:href="#S"/><use transform="matrix(0.0728395061728395,0,0,0.0728395061728395,268.41358024691357,0)" xlink:href="#W"/></g><path fill="#b2b2b2" d="M205 0l-28-72H64L36 0H1l101-248h38L239 0h-34zm-38-99l-47-123c-12 45-31 82-46 123h93" id="X"/><path fill="#b2b2b2" d="M117-194c89-4 53 116 60 194h-32v-121c0-31-8-49-39-48C34-167 62-67 57 0H25l-1-190h30c1 10-1 24 2 32 11-22 29-35 61-36" id="Y"/><path fill="#b2b2b2" d="M59-47c-2 24 18 29 38 22v24C64 9 27 4 27-40v-127H5v-23h24l9-43h21v43h35v23H59v120" id="Z"/><path fill="#b2b2b2" d="M100-194c62-1 85 37 85 99 1 63-27 99-86 99S16-35 15-95c0-66 28-99 85-99zM99-20c44 1 53-31 53-75 0-43-8-75-51-75s-53 32-53 75 10 74 51 75" id="aa"/><path fill="#b2b2b2" d="M24-231v-30h32v30H24zM24 0v-190h32V0H24" id="ab"/><path fill="#b2b2b2" d="M100-194c63 0 86 42 84 106H49c0 40 14 67 53 68 26 1 43-12 49-29l28 8c-11 28-37 45-77 45C44 4 14-33 15-96c1-61 26-98 85-98zm52 81c6-60-76-77-97-28-3 7-6 17-6 28h103" id="ac"/><g id="d"><use transform="matrix(0.04248971193415638,0,0,0.04248971193415638,0,0)" xlink:href="#X"/><use transform="matrix(0.04248971193415638,0,0,0.04248971193415638,10.19753086419753,0)" xlink:href="#Y"/><use transform="matrix(0.04248971193415638,0,0,0.04248971193415638,18.695473251028805,0)" xlink:href="#Z"/><use transform="matrix(0.04248971193415638,0,0,0.04248971193415638,22.944444444444443,0)" xlink:href="#aa"/><use transform="matrix(0.04248971193415638,0,0,0.04248971193415638,31.44238683127572,0)" xlink:href="#ab"/><use transform="matrix(0.04248971193415638,0,0,0.04248971193415638,34.79907407407407,0)" xlink:href="#Y"/><use transform="matrix(0.04248971193415638,0,0,0.04248971193415638,43.29701646090535,0)" xlink:href="#ac"/></g><path fill="#b2b2b2" d="M85-194c31 0 48 13 60 33l-1-100h32l1 261h-30c-2-10 0-23-3-31C134-8 116 4 85 4 32 4 16-35 15-94c0-66 23-100 70-100zm9 24c-40 0-46 34-46 75 0 40 6 74 45 74 42 0 51-32 51-76 0-42-9-74-50-73" id="ad"/><path fill="#b2b2b2" d="M141-36C126-15 110 5 73 4 37 3 15-17 15-53c-1-64 63-63 125-63 3-35-9-54-41-54-24 1-41 7-42 31l-33-3c5-37 33-52 76-52 45 0 72 20 72 64v82c-1 20 7 32 28 27v20c-31 9-61-2-59-35zM48-53c0 20 12 33 32 33 41-3 63-29 60-74-43 2-92-5-92 41" id="ae"/><path fill="#b2b2b2" d="M210-169c-67 3-38 105-44 169h-31v-121c0-29-5-50-35-48C34-165 62-65 56 0H25l-1-190h30c1 10-1 24 2 32 10-44 99-50 107 0 11-21 27-35 58-36 85-2 47 119 55 194h-31v-121c0-29-5-49-35-48" id="af"/><g id="e"><use transform="matrix(0.04248971193415638,0,0,0.04248971193415638,0,0)" xlink:href="#X"/><use transform="matrix(0.04248971193415638,0,0,0.04248971193415638,10.19753086419753,0)" xlink:href="#ad"/><use transform="matrix(0.04248971193415638,0,0,0.04248971193415638,18.695473251028805,0)" xlink:href="#ae"/><use transform="matrix(0.04248971193415638,0,0,0.04248971193415638,27.193415637860078,0)" xlink:href="#af"/></g><path fill="#b2b2b2" d="M32 76v-337h29V76H32" id="ag"/><use transform="matrix(0.04248971193415638,0,0,0.04248971193415638,0,0)" xlink:href="#ag" id="f"/><path fill="#b2b2b2" d="M140-251c81 0 123 46 123 126C263-46 219 4 140 4 59 4 17-45 17-125s42-126 123-126zm0 227c63 0 89-41 89-101s-29-99-89-99c-61 0-89 39-89 99S79-25 140-24" id="ah"/><path fill="#b2b2b2" d="M96-169c-40 0-48 33-48 73s9 75 48 75c24 0 41-14 43-38l32 2c-6 37-31 61-74 61-59 0-76-41-82-99-10-93 101-131 147-64 4 7 5 14 7 22l-32 3c-4-21-16-35-41-35" id="ai"/><path fill="#b2b2b2" d="M115-194c53 0 69 39 70 98 0 66-23 100-70 100C84 3 66-7 56-30L54 0H23l1-261h32v101c10-23 28-34 59-34zm-8 174c40 0 45-34 45-75 0-40-5-75-45-74-42 0-51 32-51 76 0 43 10 73 51 73" id="aj"/><path fill="#b2b2b2" d="M114-163C36-179 61-72 57 0H25l-1-190h30c1 12-1 29 2 39 6-27 23-49 58-41v29" id="ak"/><g id="g"><use transform="matrix(0.04248971193415638,0,0,0.04248971193415638,0,0)" xlink:href="#ah"/><use transform="matrix(0.04248971193415638,0,0,0.04248971193415638,11.897119341563785,0)" xlink:href="#ai"/><use transform="matrix(0.04248971193415638,0,0,0.04248971193415638,19.545267489711932,0)" xlink:href="#Z"/><use transform="matrix(0.04248971193415638,0,0,0.04248971193415638,23.79423868312757,0)" xlink:href="#aa"/><use transform="matrix(0.04248971193415638,0,0,0.04248971193415638,32.29218106995884,0)" xlink:href="#aj"/><use transform="matrix(0.04248971193415638,0,0,0.04248971193415638,40.79012345679012,0)" xlink:href="#ac"/><use transform="matrix(0.04248971193415638,0,0,0.04248971193415638,49.288065843621396,0)" xlink:href="#ak"/></g><path fill="#b2b2b2" d="M101-251c82-7 93 87 43 132L82-64C71-53 59-42 53-27h129V0H18c2-99 128-94 128-182 0-28-16-43-45-43s-46 15-49 41l-32-3c6-41 34-60 81-64" id="al"/><path fill="#b2b2b2" d="M101-251c68 0 85 55 85 127S166 4 100 4C33 4 14-52 14-124c0-73 17-127 87-127zm-1 229c47 0 54-49 54-102s-4-102-53-102c-51 0-55 48-55 102 0 53 5 102 54 102" id="am"/><path fill="#b2b2b2" d="M68-38c1 34 0 65-14 84H32c9-13 17-26 17-46H33v-38h35" id="an"/><g id="h"><use transform="matrix(0.04248971193415638,0,0,0.04248971193415638,0,0)" xlink:href="#al"/><use transform="matrix(0.04248971193415638,0,0,0.04248971193415638,8.497942386831275,0)" xlink:href="#am"/><use transform="matrix(0.04248971193415638,0,0,0.04248971193415638,16.99588477366255,0)" xlink:href="#an"/></g><path fill="#b2b2b2" d="M27 0v-27h64v-190l-56 39v-29l58-41h29v221h61V0H27" id="ao"/><g id="i"><use transform="matrix(0.04248971193415638,0,0,0.04248971193415638,0,0)" xlink:href="#al"/><use transform="matrix(0.04248971193415638,0,0,0.04248971193415638,8.497942386831275,0)" xlink:href="#am"/><use transform="matrix(0.04248971193415638,0,0,0.04248971193415638,16.99588477366255,0)" xlink:href="#al"/><use transform="matrix(0.04248971193415638,0,0,0.04248971193415638,25.493827160493822,0)" xlink:href="#ao"/></g><path fill="#333" d="M205 0l-28-72H64L36 0H1l101-248h38L239 0h-34zm-38-99l-47-123c-12 45-31 82-46 123h93" id="ap"/><path fill="#333" d="M96-169c-40 0-48 33-48 73s9 75 48 75c24 0 41-14 43-38l32 2c-6 37-31 61-74 61-59 0-76-41-82-99-10-93 101-131 147-64 4 7 5 14 7 22l-32 3c-4-21-16-35-41-35" id="aq"/><path fill="#333" d="M59-47c-2 24 18 29 38 22v24C64 9 27 4 27-40v-127H5v-23h24l9-43h21v43h35v23H59v120" id="ar"/><path fill="#333" d="M114-163C36-179 61-72 57 0H25l-1-190h30c1 12-1 29 2 39 6-27 23-49 58-41v29" id="as"/><g id="j"><use transform="matrix(0.06172839506172839,0,0,0.06172839506172839,0,0)" xlink:href="#ap"/><use transform="matrix(0.06172839506172839,0,0,0.06172839506172839,14.814814814814813,0)" xlink:href="#aq"/><use transform="matrix(0.06172839506172839,0,0,0.06172839506172839,25.925925925925924,0)" xlink:href="#ar"/><use transform="matrix(0.06172839506172839,0,0,0.06172839506172839,32.098765432098766,0)" xlink:href="#G"/><use transform="matrix(0.06172839506172839,0,0,0.06172839506172839,44.44444444444444,0)" xlink:href="#H"/><use transform="matrix(0.06172839506172839,0,0,0.06172839506172839,56.79012345679012,0)" xlink:href="#as"/></g><path fill="#333" d="M127-220V0H93v-220H8v-28h204v28h-85" id="at"/><path fill="#333" d="M141-36C126-15 110 5 73 4 37 3 15-17 15-53c-1-64 63-63 125-63 3-35-9-54-41-54-24 1-41 7-42 31l-33-3c5-37 33-52 76-52 45 0 72 20 72 64v82c-1 20 7 32 28 27v20c-31 9-61-2-59-35zM48-53c0 20 12 33 32 33 41-3 63-29 60-74-43 2-92-5-92 41" id="au"/><path fill="#333" d="M210-169c-67 3-38 105-44 169h-31v-121c0-29-5-50-35-48C34-165 62-65 56 0H25l-1-190h30c1 10-1 24 2 32 10-44 99-50 107 0 11-21 27-35 58-36 85-2 47 119 55 194h-31v-121c0-29-5-49-35-48" id="av"/><path fill="#333" d="M177-190C167-65 218 103 67 71c-23-6-38-20-44-43l32-5c15 47 100 32 89-28v-30C133-14 115 1 83 1 29 1 15-40 15-95c0-56 16-97 71-98 29-1 48 16 59 35 1-10 0-23 2-32h30zM94-22c36 0 50-32 50-73 0-42-14-75-50-75-39 0-46 34-46 75s6 73 46 73" id="aw"/><path fill="#333" d="M100-194c62-1 85 37 85 99 1 63-27 99-86 99S16-35 15-95c0-66 28-99 85-99zM99-20c44 1 53-31 53-75 0-43-8-75-51-75s-53 32-53 75 10 74 51 75" id="ax"/><path fill="#333" d="M106-169C34-169 62-67 57 0H25v-261h32l-1 103c12-21 28-36 61-36 89 0 53 116 60 194h-32v-121c2-32-8-49-39-48" id="ay"/><path fill="#333" d="M24-231v-30h32v30H24zM24 0v-190h32V0H24" id="az"/><g id="k"><use transform="matrix(0.06172839506172839,0,0,0.06172839506172839,0,0)" xlink:href="#E"/><use transform="matrix(0.06172839506172839,0,0,0.06172839506172839,6.172839506172839,0)" xlink:href="#at"/><use transform="matrix(0.06172839506172839,0,0,0.06172839506172839,17.22222222222222,0)" xlink:href="#au"/><use transform="matrix(0.06172839506172839,0,0,0.06172839506172839,29.5679012345679,0)" xlink:href="#av"/><use transform="matrix(0.06172839506172839,0,0,0.06172839506172839,48.02469135802468,0)" xlink:href="#au"/><use transform="matrix(0.06172839506172839,0,0,0.06172839506172839,60.37037037037036,0)" xlink:href="#aw"/><use transform="matrix(0.06172839506172839,0,0,0.06172839506172839,72.71604938271604,0)" xlink:href="#ax"/><use transform="matrix(0.06172839506172839,0,0,0.06172839506172839,85.06172839506172,0)" xlink:href="#ar"/><use transform="matrix(0.06172839506172839,0,0,0.06172839506172839,91.23456790123456,0)" xlink:href="#aq"/><use transform="matrix(0.06172839506172839,0,0,0.06172839506172839,102.34567901234567,0)" xlink:href="#ay"/><use transform="matrix(0.06172839506172839,0,0,0.06172839506172839,114.69135802469135,0)" xlink:href="#az"/></g><path fill="#333" d="M212-179c-10-28-35-45-73-45-59 0-87 40-87 99 0 60 29 101 89 101 43 0 62-24 78-52l27 14C228-24 195 4 139 4 59 4 22-46 18-125c-6-104 99-153 187-111 19 9 31 26 39 46" id="aA"/><path fill="#333" d="M135-143c-3-34-86-38-87 0 15 53 115 12 119 90S17 21 10-45l28-5c4 36 97 45 98 0-10-56-113-15-118-90-4-57 82-63 122-42 12 7 21 19 24 35" id="aB"/><g id="l"><use transform="matrix(0.05,0,0,0.05,0,0)" xlink:href="#aA"/><use transform="matrix(0.05,0,0,0.05,12.950000000000001,0)" xlink:href="#ay"/><use transform="matrix(0.05,0,0,0.05,22.950000000000003,0)" xlink:href="#ax"/><use transform="matrix(0.05,0,0,0.05,32.95,0)" xlink:href="#az"/><use transform="matrix(0.05,0,0,0.05,36.900000000000006,0)" xlink:href="#aB"/><use transform="matrix(0.05,0,0,0.05,45.900000000000006,0)" xlink:href="#az"/><use transform="matrix(0.05,0,0,0.05,49.85000000000001,0)" xlink:href="#ar"/></g><path fill="#333" d="M117-194c89-4 53 116 60 194h-32v-121c0-31-8-49-39-48C34-167 62-67 57 0H25l-1-190h30c1 10-1 24 2 32 11-22 29-35 61-36" id="aC"/><g id="m"><use transform="matrix(0.05,0,0,0.05,0,0)" xlink:href="#H"/><use transform="matrix(0.05,0,0,0.05,10,0)" xlink:href="#aC"/><use transform="matrix(0.05,0,0,0.05,20,0)" xlink:href="#G"/></g><g id="n"><use transform="matrix(0.05,0,0,0.05,0,0)" xlink:href="#au"/><use transform="matrix(0.05,0,0,0.05,10,0)" xlink:href="#aq"/><use transform="matrix(0.05,0,0,0.05,19,0)" xlink:href="#ar"/><use transform="matrix(0.05,0,0,0.05,24,0)" xlink:href="#az"/><use transform="matrix(0.05,0,0,0.05,27.950000000000003,0)" xlink:href="#ax"/><use transform="matrix(0.05,0,0,0.05,37.95,0)" xlink:href="#aC"/></g><path fill="#333" d="M190 0L58-211 59 0H30v-248h39L202-35l-2-213h31V0h-41" id="aD"/><path fill="#333" d="M87 75C49 33 22-17 22-94c0-76 28-126 65-167h31c-38 41-64 92-64 168S80 34 118 75H87" id="aE"/><path fill="#333" d="M33-261c38 41 65 92 65 168S71 34 33 75H2C39 34 66-17 66-93S39-220 2-261h31" id="aF"/><g id="o"><use transform="matrix(0.05,0,0,0.05,0,0)" xlink:href="#au"/><use transform="matrix(0.05,0,0,0.05,10,0)" xlink:href="#aq"/><use transform="matrix(0.05,0,0,0.05,19,0)" xlink:href="#ar"/><use transform="matrix(0.05,0,0,0.05,24,0)" xlink:href="#az"/><use transform="matrix(0.05,0,0,0.05,27.950000000000003,0)" xlink:href="#ax"/><use transform="matrix(0.05,0,0,0.05,37.95,0)" xlink:href="#aC"/><use transform="matrix(0.05,0,0,0.05,47.95,0)" xlink:href="#aD"/><use transform="matrix(0.05,0,0,0.05,60.900000000000006,0)" xlink:href="#ax"/><use transform="matrix(0.05,0,0,0.05,70.9,0)" xlink:href="#H"/><use transform="matrix(0.05,0,0,0.05,80.9,0)" xlink:href="#as"/><use transform="matrix(0.05,0,0,0.05,86.85000000000001,0)" xlink:href="#as"/><use transform="matrix(0.05,0,0,0.05,92.80000000000001,0)" xlink:href="#az"/><use transform="matrix(0.05,0,0,0.05,96.75000000000001,0)" xlink:href="#as"/><use transform="matrix(0.05,0,0,0.05,102.7,0)" xlink:href="#aE"/><use transform="matrix(0.05,0,0,0.05,108.65000000000003,0)" xlink:href="#aF"/></g><path fill="#333" d="M85-194c31 0 48 13 60 33l-1-100h32l1 261h-30c-2-10 0-23-3-31C134-8 116 4 85 4 32 4 16-35 15-94c0-66 23-100 70-100zm9 24c-40 0-46 34-46 75 0 40 6 74 45 74 42 0 51-32 51-76 0-42-9-74-50-73" id="aG"/><path fill="#333" d="M101-234c-31-9-42 10-38 44h38v23H63V0H32v-167H5v-23h27c-7-52 17-82 69-68v24" id="aH"/><g id="p"><use transform="matrix(0.05,0,0,0.05,0,0)" xlink:href="#av"/><use transform="matrix(0.05,0,0,0.05,14.950000000000001,0)" xlink:href="#ax"/><use transform="matrix(0.05,0,0,0.05,24.950000000000003,0)" xlink:href="#aG"/><use transform="matrix(0.05,0,0,0.05,34.95,0)" xlink:href="#az"/><use transform="matrix(0.05,0,0,0.05,38.900000000000006,0)" xlink:href="#aH"/><use transform="matrix(0.05,0,0,0.05,43.900000000000006,0)" xlink:href="#az"/><use transform="matrix(0.05,0,0,0.05,47.85000000000001,0)" xlink:href="#G"/><use transform="matrix(0.05,0,0,0.05,57.85,0)" xlink:href="#as"/><use transform="matrix(0.05,0,0,0.05,63.80000000000001,0)" xlink:href="#aD"/><use transform="matrix(0.05,0,0,0.05,76.75000000000001,0)" xlink:href="#ax"/><use transform="matrix(0.05,0,0,0.05,86.75000000000001,0)" xlink:href="#H"/><use transform="matrix(0.05,0,0,0.05,96.75000000000001,0)" xlink:href="#as"/><use transform="matrix(0.05,0,0,0.05,102.7,0)" xlink:href="#as"/><use transform="matrix(0.05,0,0,0.05,108.65000000000003,0)" xlink:href="#az"/><use transform="matrix(0.05,0,0,0.05,112.60000000000002,0)" xlink:href="#ar"/><use transform="matrix(0.05,0,0,0.05,117.60000000000002,0)" xlink:href="#H"/><use transform="matrix(0.05,0,0,0.05,127.60000000000002,0)" xlink:href="#as"/><use transform="matrix(0.05,0,0,0.05,133.55,0)" xlink:href="#G"/><use transform="matrix(0.05,0,0,0.05,143.55,0)" xlink:href="#aE"/><use transform="matrix(0.05,0,0,0.05,149.5,0)" xlink:href="#aF"/></g><path fill="#333" d="M115-194c55 1 70 41 70 98S169 2 115 4C84 4 66-9 55-30l1 105H24l-1-265h31l2 30c10-21 28-34 59-34zm-8 174c40 0 45-34 45-75s-6-73-45-74c-42 0-51 32-51 76 0 43 10 73 51 73" id="aI"/><g id="q"><use transform="matrix(0.05,0,0,0.05,0,0)" xlink:href="#as"/><use transform="matrix(0.05,0,0,0.05,5.95,0)" xlink:href="#G"/><use transform="matrix(0.05,0,0,0.05,15.949999999999998,0)" xlink:href="#aI"/><use transform="matrix(0.05,0,0,0.05,25.950000000000003,0)" xlink:href="#au"/><use transform="matrix(0.05,0,0,0.05,35.95,0)" xlink:href="#az"/><use transform="matrix(0.05,0,0,0.05,39.900000000000006,0)" xlink:href="#aC"/><use transform="matrix(0.05,0,0,0.05,49.900000000000006,0)" xlink:href="#ar"/><use transform="matrix(0.05,0,0,0.05,54.900000000000006,0)" xlink:href="#aE"/><use transform="matrix(0.05,0,0,0.05,60.85,0)" xlink:href="#aF"/></g><g id="r"><use transform="matrix(0.05,0,0,0.05,0,0)" xlink:href="#aA"/><use transform="matrix(0.05,0,0,0.05,12.950000000000001,0)" xlink:href="#ay"/><use transform="matrix(0.05,0,0,0.05,22.950000000000003,0)" xlink:href="#au"/><use transform="matrix(0.05,0,0,0.05,32.95,0)" xlink:href="#aC"/><use transform="matrix(0.05,0,0,0.05,42.95,0)" xlink:href="#aw"/><use transform="matrix(0.05,0,0,0.05,52.95,0)" xlink:href="#G"/></g><path fill="#333" d="M47-170H22l-4-78h33" id="aJ"/><path fill="#333" d="M108 0H70L1-190h34L89-25l56-165h34" id="aK"/><g id="s"><use transform="matrix(0.05,0,0,0.05,0,0)" xlink:href="#aG"/><use transform="matrix(0.05,0,0,0.05,10,0)" xlink:href="#aJ"/><use transform="matrix(0.05,0,0,0.05,13.4,0)" xlink:href="#G"/><use transform="matrix(0.05,0,0,0.05,23.4,0)" xlink:href="#aC"/><use transform="matrix(0.05,0,0,0.05,33.4,0)" xlink:href="#aK"/><use transform="matrix(0.05,0,0,0.05,42.4,0)" xlink:href="#az"/><use transform="matrix(0.05,0,0,0.05,46.35,0)" xlink:href="#as"/><use transform="matrix(0.05,0,0,0.05,52.300000000000004,0)" xlink:href="#ax"/><use transform="matrix(0.05,0,0,0.05,62.300000000000004,0)" xlink:href="#aC"/><use transform="matrix(0.05,0,0,0.05,72.30000000000001,0)" xlink:href="#aC"/><use transform="matrix(0.05,0,0,0.05,82.30000000000001,0)" xlink:href="#G"/><use transform="matrix(0.05,0,0,0.05,92.30000000000001,0)" xlink:href="#av"/><use transform="matrix(0.05,0,0,0.05,107.25,0)" xlink:href="#G"/><use transform="matrix(0.05,0,0,0.05,117.25,0)" xlink:href="#aC"/><use transform="matrix(0.05,0,0,0.05,127.25,0)" xlink:href="#ar"/></g><path fill="#333" d="M209 0H11v-25l151-195H24v-28h176v25L50-27h159V0" id="aL"/><g id="t"><use transform="matrix(0.05,0,0,0.05,0,0)" xlink:href="#aq"/><use transform="matrix(0.05,0,0,0.05,9,0)" xlink:href="#ay"/><use transform="matrix(0.05,0,0,0.05,19,0)" xlink:href="#au"/><use transform="matrix(0.05,0,0,0.05,29,0)" xlink:href="#aC"/><use transform="matrix(0.05,0,0,0.05,39,0)" xlink:href="#aw"/><use transform="matrix(0.05,0,0,0.05,49,0)" xlink:href="#G"/><use transform="matrix(0.05,0,0,0.05,59,0)" xlink:href="#av"/><use transform="matrix(0.05,0,0,0.05,73.95,0)" xlink:href="#G"/><use transform="matrix(0.05,0,0,0.05,83.95,0)" xlink:href="#aC"/><use transform="matrix(0.05,0,0,0.05,93.95,0)" xlink:href="#ar"/><use transform="matrix(0.05,0,0,0.05,98.95,0)" xlink:href="#aL"/><use transform="matrix(0.05,0,0,0.05,109.9,0)" xlink:href="#ax"/><use transform="matrix(0.05,0,0,0.05,119.9,0)" xlink:href="#aC"/><use transform="matrix(0.05,0,0,0.05,129.9,0)" xlink:href="#G"/><use transform="matrix(0.05,0,0,0.05,139.9,0)" xlink:href="#aE"/><use transform="matrix(0.05,0,0,0.05,145.85,0)" xlink:href="#aF"/></g></defs></g></svg>